<?xml version="1.0" encoding="UTF-8"?>
<svg width="1200pt" height="1200pt" version="1.1" viewBox="0 0 1200 1200" xmlns="http://www.w3.org/2000/svg">
 <path d="m526.18 673.82c50.109 50.109 111.84 74.672 178.31 74.672 4.5 0 9-0.1875 13.5-0.42188 0.23438 0 0.51562 0.14062 0.75 0.14062 0.375 0 0.70312-0.1875 1.0312-0.1875 87.234-4.875 181.36-51.094 266.9-136.69 0.1875-0.1875 0.32812-0.32813 0.51562-0.51563 0 0 0.046875 0 0.046875-0.046874 0 0 0-0.046876 0.046875-0.046876 52.266-52.359 90.703-103.88 114.94-153.84 0.046875-0.09375 0.14062-0.23438 0.14062-0.32812 11.719-24.188 20.156-48.047 25.172-71.438 18.234-85.266-8.1562-164.11-78.375-234.32-70.219-70.219-149.06-96.609-234.32-78.375-23.391 5.0156-47.25 13.453-71.438 25.172l-0.28125 0.14062c-49.969 24.234-101.48 62.672-153.84 114.94 0 0-0.046875 0-0.046875 0.046875 0 0 0 0.046875-0.046875 0.046875l-0.51562 0.51562c-85.453 85.453-131.63 179.44-136.6 266.53-0.09375 0.75-0.1875 1.4531-0.14062 2.2031-3.5156 71.531 20.766 138.32 74.25 191.81zm-31.641-276.14 10.219 10.219-19.734 19.734c2.6719-10.031 5.8594-20.016 9.5156-29.953zm44.719-86.625 31.172 31.172-48.703 48.703-17.344-17.344c9.6094-21.375 21.375-42.281 34.875-62.531zm58.547-72.75 38.25 38.25-48.703 48.703-34.219-34.219c13.641-18.375 28.641-36.047 44.672-52.734zm68.625-62.719 35.297 35.297-48.703 48.703-38.25-38.25c17.391-16.875 34.594-32.109 51.656-45.75zm79.078-52.219 21.891 21.891-48.703 48.703-33.094-33.094c20.25-14.859 40.219-27.328 59.906-37.5zm277.92 36.234-38.203 38.203-50.578-50.578 30.375-30.375c20.016 10.875 39.516 25.125 58.406 42.75zm59.859 75.375-30.469 30.469-50.672-50.672 38.344-38.344c17.719 18.938 31.969 38.484 42.797 58.547zm25.312 86.25-38.812-38.812 24.375-24.375c8.25 20.531 13.078 41.625 14.438 63.188zm-21.047 110.25-15.75-15.75 31.266-31.266c-3.6094 15.422-8.7188 31.078-15.516 47.016zm-48.422 82.922-33.047-33 48.703-48.703 21.844 21.844c-10.172 19.641-22.641 39.609-37.5 59.859zm-60.469 70.828-38.203-38.203 48.703-48.703 35.25 35.25c-13.641 17.062-28.875 34.266-45.75 51.656zm-69.703 61.594-34.125-34.125 48.703-48.703 38.203 38.203c-16.734 16.031-34.406 31.031-52.781 44.625zm-82.547 48.797-17.25-17.25 48.703-48.703 31.125 31.125c-20.297 13.453-41.203 25.219-62.578 34.828zm-103.41 27.891-47.156-47.156 48.703-48.703 50.672 50.672-42.609 42.609c-0.51562 0.51562-0.79688 1.1719-1.1719 1.7812-2.8594 0.32812-5.625 0.5625-8.4375 0.79687zm-228.61-136.55c0.51562-0.375 1.0781-0.5625 1.5469-1.0312l27.797-27.797 50.578 50.578-39.375 39.375c-17.719-19.312-31.031-39.844-40.547-61.125zm-17.156-118.27c0.60938-0.42187 1.3125-0.70312 1.875-1.2188l42.609-42.609 50.672 50.672-48.703 48.703-47.203-47.203c0.23438-2.8125 0.46875-5.5781 0.75-8.3438zm196.64 74.391 48.703-48.703 50.672 50.672-48.703 48.656zm33.703 67.594-48.703 48.703-50.672-50.672 48.703-48.703zm196.97-196.97-48.703 48.703-50.672-50.672 48.703-48.703zm-33.703-67.594 48.703-48.703 50.672 50.672-48.703 48.703zm-31.969 133.26-48.703 48.703-50.625-50.672 48.703-48.703zm-116.3-18.938-50.578-50.578 48.703-48.703 50.578 50.578zm-16.969 16.969-48.703 48.703-50.578-50.578 48.703-48.703zm84.609 84.609 50.672 50.672-48.703 48.703-50.672-50.672zm16.969-16.969 48.703-48.703 50.672 50.672-48.703 48.703zm65.625-65.672 48.703-48.703 50.672 50.672-48.703 48.703zm65.672-65.672 48.703-48.703 50.672 50.672-48.703 48.703zm65.672-65.625 48.703-48.703 50.672 50.672-48.703 48.703zm-16.969-16.969-50.672-50.672 48.703-48.703 50.672 50.672zm-67.641-67.641-50.578-50.578 48.703-48.703 50.578 50.578zm-16.969 16.969-48.703 48.703-50.578-50.578 48.703-48.703zm-65.672 65.672-48.703 48.703-50.578-50.578 48.703-48.703zm-116.25-18.891-50.672-50.672 48.703-48.703 50.672 50.672zm-16.969 16.969-48.703 48.703-50.672-50.672 48.703-48.703zm-65.625 65.672-48.703 48.703-50.672-50.672 48.703-48.703zm-48.703 82.594 50.578 50.578-48.703 48.703-50.578-50.578zm1.9219 133.22 50.672 50.672-27.797 27.797c-0.46875 0.46875-0.65625 1.0312-1.0312 1.5-21.328-9.5156-41.859-22.875-61.219-40.594zm67.594 67.641 30.703 30.703c-17.672-0.98438-35.109-4.0312-52.172-9.2344zm133.31 1.9688 10.172 10.172c-9.8906 3.6562-19.781 6.7969-29.766 9.4688zm125.44-565.03-38.625-38.625c21.469 1.4062 42.422 6.1875 62.859 14.391zm-67.594-33.703 50.672 50.672-48.703 48.703-50.672-50.672zm-15 116.34-48.703 48.703-50.672-50.672 48.703-48.703zm-328.31 328.26-21.516 21.516c-5.25-17.109-8.2969-34.547-9.2812-52.266zm309-444.24-31.406 31.406-15.844-15.844c16.031-6.8438 31.734-12 47.25-15.562zm-498.28 727.31-3.375-3.375c-11.766-11.766-32.25-11.766-44.062 0l-242.86 242.86c-5.9062 5.9062-9.1406 13.734-9.1406 22.031 0 8.3438 3.2344 16.125 9.1406 22.031l65.062 65.062c5.8594 5.9062 13.688 9.1406 22.031 9.1406s16.125-3.2344 22.031-9.1406l242.9-242.9c5.9062-5.9062 9.1406-13.688 9.1406-22.031s-3.2344-16.125-9.1406-22.031l-2.4375-2.4375c35.344-24.562 78.703-47.391 129.28-67.875 49.406-20.016 105.75-27.094 167.53-21.094 112.97 11.109 239.16-43.828 345.84-150.56 192.74-192.74 214.5-374.76 62.953-526.31-151.6-151.45-333.56-129.74-526.36 63.047-106.59 106.59-161.48 232.55-150.56 345.56 6.0938 63.234-0.9375 120.47-20.953 170.06-20.203 49.969-42.75 92.953-67.031 127.97zm44.719 88.781-242.86 242.86c-2.7188 2.7188-7.4062 2.7188-10.125 0l-65.062-65.062c-1.3594-1.3594-2.1094-3.1406-2.1094-5.0625 0-1.9219 0.75-3.7031 2.1094-5.0625l242.9-242.9c1.4062-1.4062 3.2344-2.0625 5.0625-2.0625 1.8281 0 3.6562 0.70312 5.0625 2.0625l65.062 65.062c2.7656 2.8594 2.7656 7.3594-0.046876 10.172zm67.125-389.11c-10.219-105.84 42.141-224.76 143.68-326.29 184.26-184.26 349.92-205.45 492.42-63s121.31 308.16-62.953 492.37c-101.62 101.62-220.82 153.89-326.53 143.63-65.672-6.375-125.86 1.2188-178.87 22.688-53.906 21.844-100.08 46.359-137.53 72.891l-24.75-24.75c26.25-37.172 50.484-82.922 72.047-136.26 21.422-53.156 29.016-114.19 22.5-181.26z"/>
</svg>
